Coordinates
version=1
nRows=22
nColumns=24
inDegrees=yes

Units are S.I. units (second, meters, Newtons, ...)
Angles are in degrees.

endheader
time	pelvis_tilt	pelvis_list	pelvis_rotation	pelvis_tx	pelvis_ty	pelvis_tz	hip_flexion_r	hip_adduction_r	hip_rotation_r	knee_angle_r	ankle_angle_r	subtalar_angle_r	mtp_angle_r	hip_flexion_l	hip_adduction_l	hip_rotation_l	knee_angle_l	ankle_angle_l	subtalar_angle_l	mtp_angle_l	lumbar_extension	lumbar_bending	lumbar_rotation
      4.78000000	      1.93864977	      3.55051064	      4.44166395	     -1.52258128	      0.92232250	      0.17015381	     24.59295008	     -3.07709856	     -5.23753401	    -12.57607543	      5.97626141	      1.43657467	      0.00000000	    -21.87289068	      5.08860146	      6.66760979	    -12.22185768	     13.97234232	     -9.66296469	      0.00000000	    -25.73075075	     -4.53913716	     -8.33260455
      4.79000000	      2.06403274	      2.98272041	      3.91378522	     -1.50705348	      0.92125609	      0.17217098	     24.74466221	     -2.00064986	     -4.03682283	    -14.42191556	      4.38969261	     -0.99487235	      0.00000000	    -21.97424498	      4.54694689	      5.81324084	    -13.98527090	     13.14119024	     -9.17290010	      0.00000000	    -25.42770376	     -4.05582453	     -7.60864723
      4.80000000	      2.20945901	      2.36782091	      3.31439142	     -1.49134090	      0.92047673	      0.17431658	     24.87165198	     -0.84471542	     -2.76691175	    -16.33503926	      2.84689902	     -3.21445532	      0.00000000	    -21.93979976	      3.96444860	      4.63039138	    -16.02041303	     12.10024026	     -8.44406135	      0.00000000	    -25.13962881	     -3.53501105	     -6.84707660
      4.81000000	      2.36570178	      1.73096017	      2.70347306	     -1.47549500	      0.92000322	      0.17646506	     24.94722915	      0.32940980	     -1.55598048	    -18.26717253	      1.62678145	     -5.00756720	      0.00000000	    -21.74241440	      3.34660319	      3.28757214	    -18.33638294	     10.66461050	     -7.71284982	      0.00000000	    -24.87181690	     -2.98464026	     -6.06501953
      4.82000000	      2.60062873	      1.12884683	      2.05375282	     -1.45965621	      0.91985062	      0.17865615	     24.88258090	      1.46238865	     -0.51251869	    -20.18364576	      1.07649380	     -6.21324366	      0.00000000	    -21.40032118	      2.72066367	      1.63254391	    -21.00555753	      8.86404604	     -6.77178763	      0.00000000	    -24.72732026	     -2.46496972	     -5.30349733
      4.83000000	      2.84728357	      0.51547557	      1.49276660	     -1.44386990	      0.91997764	      0.18068308	     24.69181899	      2.53269066	      0.23655009	    -21.99520690	      1.19364048	     -6.89116629	      0.00000000	    -20.83391857	      1.99890985	     -0.04940307	    -23.99138753	      6.56153182	     -5.90866634	      0.00000000	    -24.63081385	     -1.89059384	     -4.63117735
      4.84000000	      3.08051409	     -0.07666192	      1.03746464	     -1.42833304	      0.92031209	      0.18261954	     24.38592341	      3.50581184	      0.70140260	    -23.63930206	      1.88762895	     -7.22367684	      0.00000000	    -19.99132095	      1.18432143	     -1.71175619	    -27.28202273	      3.74602217	     -5.17181587	      0.00000000	    -24.58294462	     -1.32442316	     -4.08167458
      4.85000000	      3.23428983	     -0.71432408	      0.69103670	     -1.41303244	      0.92076617	      0.18430994	     24.00989512	      4.41414488	      0.79760457	    -25.04514065	      3.05202348	     -7.15449621	      0.00000000	    -18.82839335	      0.22597773	     -3.24077961	    -30.79823077	      0.41653306	     -4.70226477	      0.00000000	    -24.48303059	     -0.65716882	     -3.60787120
      4.86000000	      3.26073840	     -1.35793243	      0.47100738	     -1.39813698	      0.92124815	      0.18575056	     23.62483608	      5.21729343	      0.58785003	    -26.19399159	      4.52699519	     -6.78787122	      0.00000000	    -17.29679865	     -0.82540664	     -4.50886822	    -34.48190523	     -3.34840269	     -4.59640295	      0.00000000	    -24.29847877	      0.05910347	     -3.21721769
      4.87000000	      3.13667655	     -2.02095734	      0.43967545	     -1.38370179	      0.92171824	      0.18685705	     23.25329165	      5.91470443	      0.06579348	    -27.04342221	      6.10545105	     -6.23832019	      0.00000000	    -15.37627099	     -1.97498018	     -5.39297037	    -38.28479542	     -7.37534599	     -4.89284477	      0.00000000	    -24.00141051	      0.86361209	     -3.00794300
      4.88000000	      2.85191820	     -2.72956133	      0.52100709	     -1.36971354	      0.92207608	      0.18775379	     22.93418870	      6.57957007	     -0.64507767	    -27.62382813	      7.66235585	     -5.55077932	      0.00000000	    -13.09514271	     -3.19861936	     -5.93268357	    -42.14634658	    -11.37202568	     -5.50519376	      0.00000000	    -23.56686109	      1.74831944	     -2.84387641
      4.89000000	      2.62569370	     -3.46959599	      0.70578509	     -1.35607726	      0.92263435	      0.18842791	     22.41906601	      7.22783498	     -1.50451593	    -27.89404363	      9.07815626	     -4.96149058	      0.00000000	    -10.75459320	     -4.43338119	     -6.14341763	    -45.91791604	    -15.25315966	     -6.54593996	      0.00000000	    -23.23609974	      2.68050082	     -2.67361392
      4.90000000	      2.10199839	     -4.14981945	      0.89234711	     -1.34291722	      0.92277790	      0.18894380	     22.20501095	      7.77807912	     -2.38971950	    -28.08047529	     10.48093495	     -4.13637019	      0.00000000	     -7.94719206	     -5.53869490	     -6.08650030	    -49.68757731	    -18.53897251	     -7.72855149	      0.00000000	    -22.59903062	      3.55046085	     -2.57992196
      4.91000000	      1.69010209	     -4.81160932	      1.09446185	     -1.33009173	      0.92317574	      0.18934396	     21.79218610	      8.32884510	     -3.18607639	    -28.06186816	     11.63662846	     -3.50218104	      0.00000000	     -5.19811148	     -6.54395194	     -5.83892725	    -53.27794030	    -21.20579624	     -9.11888771	      0.00000000	    -22.12660718	      4.38395754	     -2.40159357
      4.92000000	      1.29692430	     -5.41053959	      1.24301162	     -1.31750376	      0.92370246	      0.18974348	     21.30350957	      8.85881101	     -3.81221115	    -27.91211739	     12.64292658	     -2.95934993	      0.00000000	     -2.45325997	     -7.39555345	     -5.50218966	    -56.64602427	    -23.02036000	    -10.52056756	      0.00000000	    -21.70817269	      5.10668605	     -2.16160168
      4.93000000	      0.96701100	     -5.91818540	      1.30134776	     -1.30514251	      0.92447110	      0.19019348	     20.69701461	      9.35237985	     -4.23815987	    -27.65282017	     13.48696821	     -2.50895246	      0.00000000	      0.20400709	     -8.07504392	     -5.16656412	    -59.73929183	    -23.91904245	    -11.79277056	      0.00000000	    -21.39633284	      5.67681704	     -1.82748404
      4.94000000	      0.83317698	     -6.34060511	      1.29668018	     -1.29295410	      0.92573534	      0.19070446	     19.80729933	      9.82305163	     -4.46259282	    -27.24222745	     14.10788423	     -2.24559723	      0.00000000	      2.59368796	     -8.61809093	     -4.88546493	    -62.47907544	    -23.96034956	    -12.91568109	      0.00000000	    -21.35866673	      6.10250593	     -1.39550762
      4.95000000	      0.57814125	     -6.59447075	      1.15058974	     -1.28093084	      0.92701388	      0.19134746	     19.01348221	     10.16545750	     -4.46553604	    -26.79677058	     14.73030748	     -1.90536417	      0.00000000	      5.04758016	     -8.93481269	     -4.68185782	    -64.89354508	    -23.08817154	    -13.56587654	      0.00000000	    -21.19451126	      6.27838385	     -0.87435228
      4.96000000	      0.48056684	     -6.70855862	      0.93137491	     -1.26902685	      0.92877050	      0.19206201	     17.97439172	     10.41512591	     -4.23899030	    -26.22305336	     15.21918839	     -1.66585841	      0.00000000	      7.23219968	     -9.08707326	     -4.60671906	    -66.87793825	    -21.68759134	    -14.05876290	      0.00000000	    -21.24798671	      6.24895793	     -0.28245841
      4.97000000	      0.47589780	     -6.69933069	      0.68498501	     -1.25720365	      0.93083835	      0.19280256	     16.77788294	     10.55357846	     -3.94160152	    -25.54067767	     15.62908267	     -1.52771957	      0.00000000	      9.23116062	     -9.10104854	     -4.61529420	    -68.45965028	    -19.85476937	    -14.33108101	      0.00000000	    -21.41770739	      6.04366659	      0.36241024
      4.98000000	      0.43553520	     -6.58784897	      0.44000552	     -1.24552318	      0.93297511	      0.19353328	     15.58376432	     10.59798373	     -3.48331422	    -24.78118373	     15.89803061	     -1.50274415	      0.00000000	     11.21337978	     -8.98995852	     -4.65113687	    -69.68424482	    -17.72801180	    -14.40053848	      0.00000000	    -21.55311094	      5.71765399	      0.90592974
      4.99000000	      0.41908185	     -6.39854977	      0.19403929	     -1.23391667	      0.93517165	      0.19424252	     14.33580298	     10.56147876	     -2.95266891	    -23.95997987	     16.14992721	     -1.53601273	      0.00000000	     13.10329957	     -8.78860895	     -4.74036371	    -70.55206053	    -15.50281378	    -14.36713054	      0.00000000	    -21.71146451	      5.29033732	      1.44946974
